<svg xmlns="http://www.w3.org/2000/svg" ed:name="GEWAR方程式" viewBox="0 0 1030 239" xmlns:ed="https://www.edrawsoft.cn/xml/2017/SVGExtensions/" ed:vSpacing="30" ed:hSpacing="30" width="1030" xmlns:ev="http://www.w3.org/2001/xml-events" id="page300000104" xmlns:xlink="http://www.w3.org/1999/xlink" height="239"><style type="text/css"><![CDATA[
g[ed\:togtopicid],g[ed\:hyperlink],g[ed\:comment],g[ed\:note] {cursor:pointer;}
g[id] {-moz-user-select: none;-ms-user-select: none;user-select: none;}
svg text::selection,svg tspan::selection{background-color: #4285f4;color: #ffffff;fill: #ffffff;}
.st17 {fill:#000000;font-family:微软雅黑;font-size:10pt}
.st15 {fill:#1e1e1e;font-family:Arial;font-size:9pt}
.st16 {fill:#ffffff;font-family:微软雅黑;font-size:14pt;font-weight:bold}
.st18 {fill:#ffffff;font-family:微软雅黑;font-size:18pt;font-weight:bold}
]]></style><defs/><rect y="0" fill="#ffffff" x="0" width="1030" height="239"/><g transform="matrix(1,0,0,1,931.44,30.5)" ed:width="68" ed:parentid="106" ed:layout="rightmap" id="118" ed:height="22"><text class="st15"><tspan y="15.8" x="10" textLength="48" style="white-space:pre">心理暗示</tspan></text></g><path fill="none" stroke="#825cf5" stroke-width="2" d="M-24.6,0C-6.9,0,11.3,0,24.6,0" transform="matrix(1,0,0,1,906.83,41.5)" ed:tosuperid="118" stroke-linejoin="round" stroke-linecap="round" ed:parentid="106" id="119"/><g transform="matrix(1,0,0,1,719.22,20)" ed:width="163" ed:parentid="105" ed:layout="rightmap" id="106" ed:height="43"><path fill="#825cf5" stroke="#825cf5" stroke-width="2" d="M12,0L151,0C159.1,0,163,3.9,163,12L163,31C163,39.1,159.1,43,151,43L12,43C3.9,43,0,39.1,0,31L0,12C0,3.9,3.9,0,12,0z" stroke-linejoin="round" stroke-linecap="round"/><text class="st16"><tspan y="27.95" x="19" textLength="124" style="white-space:pre">G=积极的心态</tspan></text></g><g transform="matrix(1,0,0,1,927.44,105.5)" ed:width="72" ed:parentid="108" ed:layout="rightmap" id="120" ed:height="24"><text class="st17"><tspan y="17.95" x="10" textLength="52" style="white-space:pre">平衡压力</tspan></text></g><path fill="none" stroke="#00ac50" stroke-width="2" d="M-24.6,0C-6.9,0,11.3,0,24.6,0" transform="matrix(1,0,0,1,902.83,117.5)" ed:tosuperid="120" stroke-linejoin="round" stroke-linecap="round" ed:parentid="108" id="121"/><g transform="matrix(1,0,0,1,719.22,96)" ed:width="159" ed:parentid="105" ed:layout="rightmap" id="108" ed:height="43"><path fill="#00ac50" stroke="#00ac50" stroke-width="2" d="M12,0L147,0C155.1,0,159,3.9,159,12L159,31C159,39.1,155.1,43,147,43L12,43C3.9,43,0,39.1,0,31L0,12C0,3.9,3.9,0,12,0z" stroke-linejoin="round" stroke-linecap="round"/><text class="st16"><tspan y="27.95" x="19" textLength="120" style="white-space:pre">E=放松的状态</tspan></text></g><g transform="matrix(1,0,0,1,936.44,181.5)" ed:width="72" ed:parentid="110" ed:layout="rightmap" id="123" ed:height="24"><text class="st17"><tspan y="17.95" x="10" textLength="52" style="white-space:pre">说服缘脑</tspan></text></g><path fill="none" stroke="#5064ff" stroke-width="2" d="M-24.6,0C-6.9,0,11.3,0,24.6,0" transform="matrix(1,0,0,1,911.83,193.5)" ed:tosuperid="123" stroke-linejoin="round" stroke-linecap="round" ed:parentid="110" id="124"/><g transform="matrix(1,0,0,1,719.22,172)" ed:width="168" ed:parentid="105" ed:layout="rightmap" id="110" ed:height="43"><path fill="#5064ff" stroke="#5064ff" stroke-width="2" d="M12,0L156,0C164.1,0,168,3.9,168,12L168,31C168,39.1,164.1,43,156,43L12,43C3.9,43,0,39.1,0,31L0,12C0,3.9,3.9,0,12,0z" stroke-linejoin="round" stroke-linecap="round"/><text class="st16"><tspan y="27.95" x="19" textLength="129" style="white-space:pre">W=充足的动力</tspan></text></g><g transform="matrix(1,0,0,1,22,143.5)" ed:width="111" ed:parentid="112" ed:layout="leftmap" id="125" ed:height="24"><text class="st17"><tspan y="17.95" x="10" textLength="91" style="white-space:pre">五感控制注意力</tspan></text></g><path fill="none" stroke="#825cf5" stroke-width="2" d="M24.6,0C6.9,0,-11.3,0,-24.6,0" transform="matrix(1,0,0,1,157.61,155.5)" ed:tosuperid="125" stroke-linejoin="round" stroke-linecap="round" ed:parentid="112" id="126"/><g transform="matrix(1,0,0,1,182.22,134)" ed:width="162" ed:parentid="105" ed:layout="leftmap" id="112" ed:height="43"><path fill="#825cf5" stroke="#825cf5" stroke-width="2" d="M12,0L150,0C158.1,0,162,3.9,162,12L162,31C162,39.1,158.1,43,150,43L12,43C3.9,43,0,39.1,0,31L0,12C0,3.9,3.9,0,12,0z" stroke-linejoin="round" stroke-linecap="round"/><text class="st16"><tspan y="27.95" x="19" textLength="123" style="white-space:pre">A=集中注意力</tspan></text></g><g transform="matrix(1,0,0,1,81,67.5)" ed:width="72" ed:parentid="116" ed:layout="leftmap" id="127" ed:height="24"><text class="st17"><tspan y="17.95" x="10" textLength="52" style="white-space:pre">强化记忆</tspan></text></g><path fill="none" stroke="#00ac50" stroke-width="2" d="M24.6,0C6.9,0,-11.3,0,-24.6,0" transform="matrix(1,0,0,1,177.61,79.5)" ed:tosuperid="127" stroke-linejoin="round" stroke-linecap="round" ed:parentid="116" id="128"/><g transform="matrix(1,0,0,1,202.22,58)" ed:width="142" ed:parentid="105" ed:layout="leftmap" id="116" ed:height="43"><path fill="#00ac50" stroke="#00ac50" stroke-width="2" d="M12,0L130,0C138.1,0,142,3.9,142,12L142,31C142,39.1,138.1,43,130,43L12,43C3.9,43,0,39.1,0,31L0,12C0,3.9,3.9,0,12,0z" stroke-linejoin="round" stroke-linecap="round"/><text class="st16"><tspan y="27.95" x="19" textLength="103" style="white-space:pre">R=及时复习</tspan></text></g><path fill="none" stroke="#825cf5" stroke-width="2" d="M10.8,38L13.7,38C50.4,36.1,59,-36.2,93.8,-38" transform="matrix(1,0,0,1,625.47,79.5)" ed:tosuperid="106" stroke-linejoin="round" stroke-linecap="round" ed:parentid="105" id="107"/><path fill="none" stroke="#00ac50" stroke-width="2" d="M10.8,0L13.7,0C42.5,0,72.1,0,93.8,0" transform="matrix(1,0,0,1,625.47,117.5)" ed:tosuperid="108" stroke-linejoin="round" stroke-linecap="round" ed:parentid="105" id="109"/><path fill="none" stroke="#5064ff" stroke-width="2" d="M10.8,-38L13.7,-38C50.4,-36.1,59,36.2,93.8,38" transform="matrix(1,0,0,1,625.47,155.5)" ed:tosuperid="110" stroke-linejoin="round" stroke-linecap="round" ed:parentid="105" id="111"/><path fill="none" stroke="#825cf5" stroke-width="2" d="M-10.8,-19L-13.7,-19C-46.5,-18.1,-65.5,18.3,-93.8,19" transform="matrix(1,0,0,1,437.97,136.5)" ed:tosuperid="112" stroke-linejoin="round" stroke-linecap="round" ed:parentid="105" id="113"/><path fill="none" stroke="#00ac50" stroke-width="2" d="M-10.8,19L-13.7,19C-46.5,18.1,-65.5,-18.3,-93.8,-19" transform="matrix(1,0,0,1,437.97,98.5)" ed:tosuperid="116" stroke-linejoin="round" stroke-linecap="round" ed:parentid="105" id="117"/><g transform="matrix(1,0,0,1,427.22,86)" ed:width="209" ed:layout="map" id="105" ed:topictype="mainidea" ed:height="63"><path fill="#000000" stroke="#000000" stroke-width="3" d="M12,0L197,0C205.1,0,209,3.9,209,12L209,51C209,59.1,205.1,63,197,63L12,63C3.9,63,0,59.1,0,51L0,12C0,3.9,3.9,0,12,0z" stroke-linejoin="round" stroke-linecap="round"/><text class="st18"><tspan y="40.45" x="22" textLength="165" style="white-space:pre">GEWAR方程式</tspan></text></g></svg>